<svg width="927" height="786" viewBox="0 0 927 786" fill="none" xmlns="http://www.w3.org/2000/svg">
<g id="undraw_lost_online_re_upmy 1" clip-path="url(#clip0_3_2)">
<g id="background">
<path id="Vector" d="M894.203 329.056C847.863 388.316 760.422 401.886 688.073 381.246C664.4 374.328 641.562 364.821 619.973 352.896C607.433 346.086 595.193 338.616 583.203 330.656C580.253 328.706 577.303 326.726 574.383 324.706C572.393 323.346 570.409 321.97 568.433 320.576C543.672 303.156 519.883 284.046 496.493 265.046C438.103 217.616 378.113 168.726 306.373 146.096C291.593 141.436 272.473 139.256 263.333 151.776C255.403 162.646 260.243 178.036 266.953 189.696C291.843 232.886 337.023 260.156 382.243 281.126C427.462 302.096 475.363 319.086 514.672 349.746C553.982 380.406 583.993 429.136 575.953 478.326C569.023 520.716 534.413 555.156 494.172 570.166C453.933 585.166 409.053 583.076 367.223 573.336C325.393 563.586 285.683 546.576 245.313 531.916C220.973 523.066 189.153 516.946 173.003 537.196C159.363 554.306 167.203 581.296 183.813 595.536C200.422 609.776 222.903 614.546 244.353 618.826C310.953 632.126 377.553 645.423 444.153 658.716C464.583 662.786 485.493 667.046 503.293 677.886C521.093 688.716 535.453 707.636 534.943 728.466C534.433 748.996 519.403 767.136 500.982 776.226C482.573 785.306 461.313 786.706 440.803 785.726C363.943 782.046 143.593 659.936 90.7427 644.326C56.7827 634.306 19.6529 619.586 5.33255 587.206C-12.4975 546.896 16.8428 498.126 56.8926 479.716C96.9326 461.296 143.353 465.376 186.993 471.576C230.633 477.776 275.712 485.666 318.193 473.886C360.672 462.106 399.593 423.706 395.403 379.826C391.752 341.646 357.363 312.876 321.172 300.196C292.843 290.266 262.703 287.566 232.943 283.096C224.683 281.866 216.453 280.486 208.303 278.786C187.431 274.413 167.071 267.878 147.553 259.286C127.071 250.29 107.613 239.122 89.5128 225.976C75.076 215.506 61.5845 203.792 49.193 190.966C47.3028 189.006 45.4327 187.003 43.5826 184.956C41.8229 182.996 40.0826 180.996 38.3829 178.956C16.2628 152.526 -0.0775409 119.976 4.82285 86.4364C9.7125 52.9864 35.7828 25.1364 66.8228 11.7564C84.7628 4.02641 104.113 0.566408 123.703 0.0664079C138.027 -0.219871 152.347 0.811135 166.483 3.14641C231.893 13.6064 291.833 45.3865 348.443 79.7964C405.043 114.206 460.203 151.976 521.733 176.506C583.263 201.046 653.303 211.436 715.723 189.246C778.143 167.066 829.422 106.546 826.373 40.3764C867.773 76.0264 902.953 120.836 918.533 173.196C934.113 225.556 927.853 286.016 894.203 329.056Z" fill="#3F3D56"/>
<path id="Vector_2" d="M595.911 260.671C599.93 260.671 603.188 257.413 603.188 253.394C603.188 249.374 599.93 246.116 595.911 246.116C591.891 246.116 588.633 249.374 588.633 253.394C588.633 257.413 591.891 260.671 595.911 260.671Z" fill="#6C63FF"/>
<path id="Vector_3" d="M780.911 234.646C783.259 234.646 785.163 232.742 785.163 230.394C785.163 228.045 783.259 226.142 780.911 226.142C778.562 226.142 776.659 228.045 776.659 230.394C776.659 232.742 778.562 234.646 780.911 234.646Z" fill="#F0F0F0"/>
<path id="Vector_4" d="M391.911 702.646C394.259 702.646 396.163 700.742 396.163 698.394C396.163 696.045 394.259 694.142 391.911 694.142C389.562 694.142 387.659 696.045 387.659 698.394C387.659 700.742 389.562 702.646 391.911 702.646Z" fill="#F0F0F0"/>
<path id="Vector_5" d="M452.911 761.646C455.259 761.646 457.163 759.742 457.163 757.394C457.163 755.045 455.259 753.142 452.911 753.142C450.562 753.142 448.659 755.045 448.659 757.394C448.659 759.742 450.562 761.646 452.911 761.646Z" fill="#F0F0F0"/>
<path id="Vector_6" d="M75.9107 593.646C78.259 593.646 80.1627 591.742 80.1627 589.394C80.1627 587.045 78.259 585.142 75.9107 585.142C73.5624 585.142 71.6588 587.045 71.6588 589.394C71.6588 591.742 73.5624 593.646 75.9107 593.646Z" fill="#F0F0F0"/>
<path id="Vector_7" d="M284.911 514.646C287.259 514.646 289.163 512.742 289.163 510.394C289.163 508.045 287.259 506.142 284.911 506.142C282.562 506.142 280.659 508.045 280.659 510.394C280.659 512.742 282.562 514.646 284.911 514.646Z" fill="#F0F0F0"/>
<path id="Vector_8" d="M263.911 92.6457C266.259 92.6457 268.163 90.742 268.163 88.3937C268.163 86.0454 266.259 84.1418 263.911 84.1418C261.562 84.1418 259.659 86.0454 259.659 88.3937C259.659 90.742 261.562 92.6457 263.911 92.6457Z" fill="#F0F0F0"/>
<path id="Vector_9" d="M520.911 425.646C523.259 425.646 525.163 423.742 525.163 421.394C525.163 419.045 523.259 417.142 520.911 417.142C518.562 417.142 516.659 419.045 516.659 421.394C516.659 423.742 518.562 425.646 520.911 425.646Z" fill="#F0F0F0"/>
<path id="Vector_10" d="M552.911 499.646C555.259 499.646 557.163 497.742 557.163 495.394C557.163 493.045 555.259 491.142 552.911 491.142C550.562 491.142 548.659 493.045 548.659 495.394C548.659 497.742 550.562 499.646 552.911 499.646Z" fill="#F0F0F0"/>
</g>
<g id="planetTwo">
<path id="planetright" d="M852.911 168.646C859.125 168.646 864.163 163.608 864.163 157.394C864.163 151.179 859.125 146.142 852.911 146.142C846.696 146.142 841.659 151.179 841.659 157.394C841.659 163.608 846.696 168.646 852.911 168.646Z" fill="#E03A3A"/>
<path id="planetbottom" d="M114.911 515.551C117.207 515.551 119.068 513.69 119.068 511.394C119.068 509.098 117.207 507.236 114.911 507.236C112.615 507.236 110.753 509.098 110.753 511.394C110.753 513.69 112.615 515.551 114.911 515.551Z" fill="#E03A3A"/>
<path id="planetleft" d="M234.243 272.396C234.245 276.002 233.809 279.596 232.943 283.096C224.683 281.866 216.453 280.486 208.303 278.786C187.431 274.413 167.071 267.878 147.553 259.286C150.692 249.152 157.36 240.48 166.347 234.843C175.335 229.206 186.045 226.978 196.535 228.565C207.025 230.151 216.598 235.446 223.517 243.488C230.435 251.531 234.241 261.787 234.243 272.396V272.396Z" fill="#E03A3A"/>
</g>
<g id="comets">
<path id="leftComet" opacity="0.3" d="M198.084 634.467L62.1627 521.236L194.208 639.002C194.463 639.433 194.818 639.797 195.242 640.063C195.667 640.329 196.148 640.49 196.647 640.533C197.146 640.576 197.648 640.499 198.112 640.31C198.575 640.12 198.987 639.822 199.312 639.441C199.638 639.06 199.868 638.607 199.983 638.12C200.099 637.633 200.096 637.125 199.976 636.638C199.856 636.152 199.622 635.701 199.292 635.324C198.963 634.946 198.549 634.652 198.084 634.467H198.084Z" fill="#F0F0F0"/>
<path id="rightComet" opacity="0.3" d="M730.295 340.444L861.34 221.605L726.343 335.975C725.881 336.168 725.472 336.468 725.149 336.852C724.826 337.235 724.599 337.689 724.488 338.177C724.376 338.666 724.382 339.174 724.505 339.659C724.629 340.144 724.866 340.593 725.198 340.969C725.53 341.344 725.947 341.635 726.413 341.817C726.88 341.999 727.383 342.067 727.881 342.016C728.38 341.965 728.858 341.795 729.278 341.522C729.698 341.248 730.047 340.879 730.295 340.444L730.295 340.444Z" fill="#F0F0F0"/>
</g>
<g id="planetOne">
<path id="Vector_11" d="M169.643 101.966C169.674 123.435 164.601 144.603 154.843 163.726C153.553 166.246 152.186 168.723 150.743 171.156C136.453 195.289 115.072 214.431 89.5128 225.976C75.076 215.506 61.5845 203.792 49.193 190.966C47.3028 189.006 45.4327 187.003 43.5826 184.956C41.8228 182.996 40.0826 180.996 38.3829 178.956C16.2628 152.526 -0.0775532 119.976 4.82284 86.4363C9.71249 52.9863 35.7828 25.1362 66.8228 11.7562C84.7628 4.02622 104.113 0.566277 123.703 0.0662766C139.02 13.5933 151.095 30.3955 159.033 49.2263C160.033 51.5963 160.953 53.9963 161.823 56.4263C167.013 71.0479 169.658 86.4509 169.643 101.966V101.966Z" fill="#6C63FF"/>
<path id="Vector_12" d="M231.643 108.966C231.643 129.796 211.303 149.116 174.363 163.386C166.973 166.246 159.063 168.836 150.743 171.156C119.603 179.836 82.5426 184.646 43.5826 184.956C41.8228 182.996 40.0826 180.996 38.3829 178.956C38.8028 178.966 39.2227 178.966 39.6427 178.966C81.9527 178.966 122.093 173.606 154.843 163.726C160.893 161.896 166.693 159.916 172.203 157.786C206.163 144.676 225.643 126.876 225.643 108.966C225.643 91.0562 206.163 73.2662 172.203 60.1462C168.843 58.8462 165.383 57.6062 161.823 56.4262C160.953 53.9962 160.033 51.5962 159.033 49.2262C164.353 50.8862 169.463 52.6596 174.363 54.5462C211.303 68.8162 231.643 88.1462 231.643 108.966Z" fill="#E4E4E4"/>
<path id="Vector_13" d="M45.9107 34.6457C48.259 34.6457 50.1627 32.742 50.1627 30.3937C50.1627 28.0454 48.259 26.1418 45.9107 26.1418C43.5624 26.1418 41.6588 28.0454 41.6588 30.3937C41.6588 32.742 43.5624 34.6457 45.9107 34.6457Z" fill="#F0F0F0"/>
<path id="Vector_14" d="M134.911 61.6457C137.259 61.6457 139.163 59.742 139.163 57.3937C139.163 55.0454 137.259 53.1418 134.911 53.1418C132.562 53.1418 130.659 55.0454 130.659 57.3937C130.659 59.742 132.562 61.6457 134.911 61.6457Z" fill="#F0F0F0"/>
<path id="Vector_15" d="M88.9107 141.742C111.747 141.742 130.259 123.23 130.259 100.394C130.259 77.5576 111.747 59.0453 88.9107 59.0453C66.0746 59.0453 47.5623 77.5576 47.5623 100.394C47.5623 123.23 66.0746 141.742 88.9107 141.742Z" fill="#F0F0F0"/>
<path id="Vector_16" d="M94.9107 205.646C97.259 205.646 99.1627 203.742 99.1627 201.394C99.1627 199.045 97.259 197.142 94.9107 197.142C92.5624 197.142 90.6588 199.045 90.6588 201.394C90.6588 203.742 92.5624 205.646 94.9107 205.646Z" fill="#F0F0F0"/>
</g>
<g id="men">
<path id="rightleg" d="M452.017 694.074L469.604 694.073L477.971 626.236L452.014 626.237L452.017 694.074Z" fill="#FFD9B6"/>
<path id="rightshoe" d="M447.531 688.332L452.481 688.331L471.808 680.472L482.166 688.33H482.168C488.022 688.331 493.636 690.656 497.775 694.795C501.914 698.935 504.24 704.549 504.24 710.402V711.12L447.532 711.122L447.531 688.332Z" fill="#2F2E41"/>
<path id="leftleg" d="M320.308 694.074L302.721 694.073L294.354 626.236L320.311 626.237L320.308 694.074Z" fill="#FFD9B6"/>
<path id="leftshoe" d="M324.794 711.122L268.085 711.12V710.402C268.085 704.549 270.411 698.935 274.55 694.795C278.69 690.656 284.304 688.331 290.158 688.33H290.159L300.517 680.472L319.844 688.331L324.795 688.332L324.794 711.122Z" fill="#2F2E41"/>
<path id="body" d="M383.325 174.188L365.517 187.748L318.212 200.276C318.212 200.276 335.163 319.236 327.163 327.236C319.163 335.236 326.378 335.451 324.77 345.844C323.163 356.236 316.757 383.674 316.757 383.674H457.945C457.945 383.674 459.082 366.622 452.122 362.929C445.163 359.236 458.538 342 452.85 339.118C447.163 336.236 455.163 311.236 455.163 311.236L472.5 229.387L426.386 193.307L419.373 176.409L383.325 174.188Z" fill="#E03A3A"/>
<path id="pants" d="M316.757 383.674L310.935 533.595C310.935 533.595 285.796 644.325 290.163 647.236C294.529 650.147 296.379 667.505 296.379 667.505L321.123 670.416C321.123 670.416 321.123 658.772 326.946 654.405C332.768 650.039 386.623 444.807 386.623 444.807L439.163 643.236C439.163 643.236 440.478 654.406 444.845 654.406C449.211 654.406 450.667 670.417 450.667 670.417H475.411V654.406C475.411 654.406 486.529 650.881 482.163 639.236C477.796 627.592 457.945 383.674 457.945 383.674H316.757Z" fill="#2F2E41"/>
<path id="head" d="M401.817 165.254C418.297 165.254 431.656 151.895 431.656 135.415C431.656 118.936 418.297 105.577 401.817 105.577C385.338 105.577 371.979 118.936 371.979 135.415C371.979 151.895 385.338 165.254 401.817 165.254Z" fill="#FFD9B6"/>
<path id="Vector_17" opacity="0.1" d="M452.85 269.414L458.672 273.781L461.583 253.403L452.85 269.414Z" fill="black"/>
<path id="leftarm" d="M321.003 200.16C321.003 200.16 313.725 198.705 309.358 211.804C304.992 224.904 288.981 274.393 288.981 283.126C288.981 291.859 388.691 330.393 388.691 330.393L378.316 293.997L332.647 270.026L321.003 200.16Z" fill="#E03A3A"/>
<path id="hand" d="M393.316 324.997C402.705 324.997 410.316 317.386 410.316 307.997C410.316 298.608 402.705 290.997 393.316 290.997C383.927 290.997 376.316 298.608 376.316 307.997C376.316 317.386 383.927 324.997 393.316 324.997Z" fill="#FFD9B6"/>
<path id="shadowright" opacity="0.1" d="M331.316 251.997L332.647 270.026L374.878 292.192L337.316 266.997L331.316 251.997Z" fill="black"/>
<path id="rightarm" d="M472.5 229.387C472.5 229.387 476.867 232.298 479.778 245.398C482.689 258.498 501.611 307.986 494.333 319.63C487.055 331.275 484.907 343.703 460.163 326.236L425.923 294.886L450.667 271.598L460.856 278.875L472.5 229.387Z" fill="#E03A3A"/>
<path id="shadowleft" opacity="0.1" d="M330.514 306.41L379.316 327.997L329.158 318.194L330.514 306.41Z" fill="black"/>
<path id="hair" d="M371.713 141.362L367.617 125.77C366.548 121.702 365.47 117.551 365.71 113.352C365.95 109.152 367.731 104.819 371.269 102.543C374.807 100.268 380.208 100.806 382.485 104.343C382.918 98.6951 388.055 94.3509 393.507 92.8119C398.958 91.2729 404.745 91.8815 410.404 92.1412C416.062 92.4008 422.035 92.2196 426.918 89.3499C427.29 90.4664 427.266 91.6772 426.849 92.7779C426.432 93.8785 425.648 94.8015 424.629 95.3911C425.843 95.7224 427.138 95.5801 428.251 94.9931C429.364 94.406 430.212 93.4181 430.624 92.2291C430.661 95.5 429.453 98.6624 427.243 101.074C429.351 100.029 431.772 99.8049 434.035 100.446C436.299 101.087 438.243 102.547 439.489 104.542C441.981 108.863 440.585 114.289 439.127 119.059L431.643 143.542C430.508 139.82 430.294 135.891 429.687 132.047C429.08 128.204 428 124.279 425.463 121.329C422.926 118.379 418.616 116.671 415.012 118.135C412.989 118.957 411.447 120.625 409.621 121.821C405.875 124.276 401.109 124.628 396.658 124.129C392.207 123.629 387.869 122.362 383.418 121.855C380.632 121.538 377.522 121.622 375.419 123.478C373.973 124.981 373.018 126.888 372.681 128.946C371.689 133.048 371.298 137.272 371.523 141.486" fill="#695217"/>
<path id="beard" fill-rule="evenodd" clip-rule="evenodd" d="M389.522 163.655C393.115 165.142 395.96 165.633 398.138 165.303C398.764 165.363 399.405 165.412 400.056 165.448C401.91 165.551 403.87 165.548 405.84 165.375C407.836 165.529 410.373 164.986 413.492 163.649L413.113 162.733C414.128 159.076 414.741 156.234 414.976 154.041C415.219 151.774 415.079 150.036 414.403 148.796C413.673 147.458 412.439 146.9 411.049 146.735C410.361 146.654 409.599 146.663 408.784 146.725C408.731 146.672 408.684 146.632 408.651 146.608C408.497 146.488 408.345 146.425 408.269 146.396C408.104 146.333 407.928 146.295 407.791 146.27L407.688 146.834C407.42 146.866 407.147 146.901 406.871 146.938C406.969 146.797 407.074 146.708 407.122 146.672C407.247 146.575 407.356 146.533 407.378 146.525L407.378 146.525C407.401 146.516 407.415 146.512 407.419 146.511C407.42 146.511 407.42 146.51 407.42 146.51C407.42 146.51 407.42 146.511 407.419 146.511C407.414 146.512 407.395 146.516 407.358 146.523C407.033 146.582 406.274 146.646 405.074 146.675C402.722 146.732 398.935 146.651 394.171 146.254C391.576 146.038 389.601 146.559 388.303 147.88C387.029 149.176 386.675 150.977 386.684 152.706C386.693 154.453 387.073 156.355 387.511 158.098C387.731 158.977 387.971 159.836 388.195 160.63L388.231 160.757C388.442 161.509 388.635 162.193 388.787 162.803L388.94 163.414L389.522 163.655ZM408.485 148.759C408.396 148.81 408.318 148.842 408.271 148.86C408.107 148.923 407.936 148.959 407.805 148.983C407.271 149.08 406.34 149.145 405.135 149.175C402.679 149.234 398.8 149.149 393.963 148.746C391.758 148.562 390.659 149.049 390.086 149.632C389.488 150.24 389.176 151.239 389.184 152.693C389.191 154.13 389.51 155.795 389.935 157.49C390.146 158.33 390.378 159.157 390.602 159.953L390.641 160.093C390.777 160.575 390.91 161.048 391.031 161.499C392.741 161.974 395.211 162.487 398.021 162.778C398.845 162.606 399.41 162.272 399.793 161.902C400.139 161.568 400.399 161.149 400.586 160.677C400.537 160.424 400.502 160.171 400.478 159.921C400.352 158.624 400.511 157.303 400.787 156.197L403.224 156.245C403.488 157.513 403.592 159.187 403.182 160.768C403.334 161.239 403.554 161.638 403.844 161.953C404.221 162.361 404.845 162.742 405.865 162.862C407.731 162.685 409.573 162.343 411.3 161.785C412.233 158.374 412.777 155.784 412.987 153.828C413.219 151.663 413.021 150.439 412.647 149.754C412.327 149.167 411.798 148.838 410.814 148.721C410.17 148.645 409.399 148.67 408.485 148.759Z" fill="#695217"/>
</g>
<g id="phone">
<path id="Vector_18" d="M405.545 280.49C408.948 280.49 411.707 277.731 411.707 274.328C411.707 270.926 408.948 268.167 405.545 268.167C402.142 268.167 399.384 270.926 399.384 274.328C399.384 277.731 402.142 280.49 405.545 280.49Z" fill="#F2F2F2"/>
<path id="Vector_19" d="M432.839 254.567H432.291V239.559C432.291 238.418 432.067 237.289 431.63 236.235C431.194 235.181 430.554 234.223 429.747 233.417C428.941 232.61 427.983 231.97 426.929 231.534C425.875 231.097 424.746 230.873 423.605 230.873H391.808C390.667 230.873 389.538 231.097 388.484 231.534C387.43 231.97 386.472 232.61 385.666 233.417C384.859 234.223 384.219 235.181 383.783 236.235C383.346 237.289 383.122 238.418 383.122 239.559V321.896C383.122 323.036 383.346 324.166 383.783 325.22C384.219 326.274 384.859 327.231 385.666 328.038C386.472 328.844 387.43 329.484 388.484 329.921C389.538 330.357 390.667 330.582 391.808 330.582H423.605C424.746 330.582 425.875 330.357 426.929 329.921C427.983 329.484 428.941 328.844 429.747 328.038C430.554 327.231 431.194 326.274 431.63 325.22C432.067 324.166 432.291 323.036 432.291 321.896V265.25H432.839V254.567Z" fill="#F0F0F0"/>
<path id="Vector_20" d="M408.095 267.57C412.114 267.57 415.373 264.312 415.373 260.292C415.373 256.273 412.114 253.015 408.095 253.015C404.076 253.015 400.817 256.273 400.817 260.292C400.817 264.312 404.076 267.57 408.095 267.57Z" fill="#E03A3A"/>
<path id="Vector_21" d="M429.163 293.236C438.552 293.236 446.163 285.625 446.163 276.236C446.163 266.847 438.552 259.236 429.163 259.236C419.774 259.236 412.163 266.847 412.163 276.236C412.163 285.625 419.774 293.236 429.163 293.236Z" fill="#FFD9B6"/>
</g>
<g id="socialmedia-right">
<g id="facebook">
<path id="Vector_22" d="M783.366 682.515C775.156 683.774 766.756 682.57 759.229 679.055C751.703 675.541 745.387 669.873 741.082 662.769C736.776 655.665 734.674 647.444 735.041 639.145C735.408 630.846 738.227 622.843 743.143 616.147C748.058 609.45 754.849 604.362 762.657 601.525C770.464 598.688 778.937 598.23 787.005 600.209C795.073 602.188 802.372 606.515 807.981 612.642C813.59 618.77 817.256 626.423 818.515 634.634C819.351 640.085 819.105 645.648 817.791 651.005C816.477 656.362 814.121 661.407 810.857 665.854C807.593 670.3 803.486 674.059 798.769 676.918C794.052 679.777 788.818 681.679 783.366 682.515V682.515ZM770.937 601.462C763.117 602.661 755.828 606.153 749.993 611.494C744.157 616.836 740.036 623.788 738.152 631.471C736.267 639.155 736.703 647.225 739.405 654.66C742.107 662.096 746.953 668.563 753.33 673.245C759.707 677.926 767.33 680.612 775.233 680.961C783.137 681.31 790.967 679.308 797.732 675.208C804.498 671.107 809.896 665.093 813.243 657.925C816.59 650.756 817.737 642.757 816.538 634.937C815.742 629.745 813.93 624.76 811.208 620.268C808.485 615.776 804.905 611.864 800.67 608.755C796.436 605.647 791.63 603.403 786.529 602.152C781.427 600.9 776.129 600.666 770.937 601.462V601.462Z" fill="#3F3D56"/>
<path id="Vector_23" fill-rule="evenodd" clip-rule="evenodd" d="M804.164 637.001C803.368 631.815 801.102 626.966 797.636 623.027C794.169 619.089 789.646 616.226 784.603 614.778C779.56 613.33 774.208 613.357 769.18 614.857C764.152 616.356 759.659 619.265 756.232 623.238C752.806 627.212 750.59 632.084 749.847 637.278C749.103 642.472 749.864 647.77 752.038 652.545C754.212 657.32 757.709 661.372 762.114 664.222C766.52 667.071 771.649 668.599 776.896 668.624L773.988 649.661L767.095 650.718L765.892 642.87L772.785 641.813L771.867 635.833C770.825 629.032 774.301 624.652 780.499 623.701C782.539 623.417 784.597 623.283 786.656 623.3L787.681 629.979L784.257 630.504C780.888 631.021 780.154 633.274 780.484 635.423L781.264 640.514L788.791 639.36L788.792 647.391L782.468 648.361L785.376 667.326C791.605 665.336 796.92 661.188 800.364 655.629C803.808 650.07 805.155 643.465 804.164 637.001L804.164 637.001Z" fill="#3F3D56"/>
</g>
<g id="twitter">
<path id="Vector_24" d="M677.366 541.515C669.156 542.774 660.756 541.57 653.229 538.055C645.703 534.54 639.387 528.873 635.082 521.769C630.776 514.665 628.674 506.444 629.041 498.145C629.408 489.846 632.227 481.843 637.143 475.146C642.058 468.45 648.849 463.362 656.657 460.525C664.464 457.688 672.937 457.23 681.005 459.209C689.073 461.188 696.372 465.515 701.981 471.642C707.59 477.77 711.256 485.423 712.515 493.634C713.351 499.085 713.105 504.648 711.791 510.005C710.477 515.362 708.121 520.407 704.857 524.854C701.593 529.3 697.486 533.059 692.769 535.918C688.052 538.777 682.818 540.679 677.366 541.515V541.515ZM664.937 460.462C657.117 461.661 649.828 465.153 643.993 470.494C638.157 475.836 634.036 482.788 632.152 490.471C630.267 498.155 630.703 506.225 633.405 513.66C636.107 521.096 640.953 527.563 647.33 532.245C653.707 536.926 661.33 539.612 669.233 539.961C677.137 540.31 684.967 538.308 691.732 534.208C698.498 530.107 703.896 524.093 707.243 516.925C710.59 509.756 711.737 501.757 710.538 493.937C708.93 483.451 703.222 474.033 694.67 467.755C686.118 461.477 675.423 458.854 664.937 460.462V460.462Z" fill="#3F3D56"/>
<path id="Vector_25" d="M692.979 484.993L697.77 483.246C697.77 483.246 694.331 488.529 693.585 488.946C693.663 489.945 693.815 490.936 694.04 491.912C690.796 534.091 653.047 521.467 653.047 521.467C665.843 519.808 666.127 514.403 666.127 514.403C658.547 514.452 656.321 509.836 656.321 509.836C657.04 510.085 657.826 510.06 658.527 509.766C659.229 509.472 659.797 508.929 660.124 508.242C651.799 507.394 651.689 499.418 651.689 499.418C653.274 500.23 655.041 500.621 656.82 500.554C655.764 499.603 646.872 491.76 650.707 486.417C650.707 486.417 657.758 495.453 672.424 494.114L673.382 493.765C673.105 493.078 672.926 492.356 672.851 491.62C672.429 488.868 673.118 486.06 674.765 483.815C676.413 481.57 678.886 480.072 681.638 479.65C688.557 478.589 690.646 482.315 690.646 482.315L695.134 478.592C695.035 478.607 695.299 483.625 692.979 484.993Z" fill="#3F3D56"/>
</g>
</g>
<g id="socialmedia-top">
<path id="Vector_26" d="M622.366 129.515C614.156 130.774 605.756 129.57 598.229 126.055C590.703 122.54 584.387 116.873 580.082 109.769C575.776 102.665 573.674 94.4438 574.041 86.145C574.408 77.8463 577.227 69.8428 582.143 63.1465C587.058 56.4502 593.849 51.3619 601.657 48.5251C609.464 45.6882 617.937 45.2303 626.005 47.2091C634.073 49.1879 641.373 53.5147 646.981 59.6421C652.59 65.7696 656.256 73.4227 657.515 81.6335C658.351 87.0853 658.105 92.6484 656.791 98.0051C655.477 103.362 653.121 108.407 649.857 112.854C646.593 117.3 642.486 121.06 637.769 123.918C633.052 126.777 627.818 128.679 622.366 129.515V129.515ZM609.937 48.4622C602.117 49.6614 594.828 53.1526 588.993 58.4942C583.157 63.8357 579.036 70.7878 577.152 78.4713C575.267 86.1548 575.703 94.2246 578.405 101.66C581.107 109.096 585.953 115.563 592.33 120.245C598.707 124.926 606.33 127.612 614.233 127.961C622.137 128.31 629.967 126.308 636.732 122.208C643.498 118.107 648.896 112.093 652.243 104.925C655.59 97.7563 656.737 89.7565 655.538 81.9367C653.93 71.4506 648.222 62.0328 639.67 55.7552C631.118 49.4775 620.423 46.8541 609.937 48.4622V48.4622Z" fill="#3F3D56"/>
<path id="Vector_27" d="M637.589 67.9626L600.922 62.5597C599.979 62.3737 599.001 62.5698 598.203 63.1048C597.405 63.6398 596.853 64.4698 596.667 65.4124L596.664 65.4282L591.249 102.177C591.128 103.169 591.393 104.17 591.988 104.973C592.583 105.776 593.464 106.321 594.448 106.495L631.104 111.896C632.075 112 633.047 111.718 633.81 111.111C634.574 110.503 635.067 109.619 635.184 108.651L640.599 71.902C640.745 71.011 640.532 70.0983 640.006 69.3646C639.479 68.6309 638.683 68.1364 637.792 67.9897C637.725 67.9787 637.657 67.9696 637.589 67.9626ZM605.39 100.635L599.096 99.7079L601.98 80.1381L608.274 81.0656L605.39 100.635ZM605.783 77.6585L605.738 77.6519C604.833 77.5126 604.021 77.0204 603.478 76.2832C602.936 75.5459 602.708 74.6236 602.844 73.7185C602.98 72.8134 603.47 71.9992 604.205 71.4543C604.941 70.9094 605.862 70.6783 606.768 70.8116C607.673 70.9449 608.489 71.4317 609.037 72.1654C609.584 72.8991 609.818 73.8198 609.688 74.7258C609.557 75.6319 609.073 76.4493 608.341 76.999C607.609 77.5487 606.689 77.7859 605.783 77.6585ZM628.393 104.025L622.099 103.097L623.676 92.3971C624.054 89.8335 623.396 87.9471 621.119 87.6115C620.406 87.5122 619.679 87.6366 619.04 87.9676C618.401 88.2985 617.88 88.8197 617.549 89.4592C617.308 89.9318 617.157 90.445 617.103 90.9727L615.461 102.119L609.167 101.192L612.051 81.6221L618.345 82.5495L617.943 85.2729C618.662 84.3661 619.613 83.6698 620.694 83.2571C621.775 82.8445 622.948 82.7308 624.088 82.9279C628.22 83.5367 630.944 86.7207 630.079 92.5921L628.393 104.025Z" fill="#3F3D56"/>
</g>
<g id="socialmedia-left">
<g id="instagram">
<path id="Vector_28" d="M203.366 418.515C195.156 419.774 186.756 418.57 179.229 415.055C171.703 411.541 165.387 405.873 161.082 398.769C156.776 391.665 154.674 383.444 155.041 375.145C155.408 366.846 158.227 358.843 163.143 352.146C168.058 345.45 174.849 340.362 182.657 337.525C190.464 334.688 198.937 334.23 207.005 336.209C215.073 338.188 222.373 342.515 227.981 348.642C233.59 354.77 237.256 362.423 238.515 370.634C239.351 376.085 239.105 381.648 237.791 387.005C236.477 392.362 234.121 397.407 230.857 401.854C227.593 406.3 223.486 410.059 218.769 412.918C214.052 415.777 208.818 417.679 203.366 418.515V418.515ZM190.937 337.462C183.117 338.661 175.828 342.153 169.993 347.494C164.157 352.836 160.036 359.788 158.152 367.471C156.267 375.155 156.703 383.225 159.405 390.66C162.107 398.096 166.953 404.563 173.33 409.245C179.707 413.926 187.33 416.612 195.233 416.961C203.137 417.31 210.967 415.308 217.732 411.208C224.498 407.107 229.896 401.093 233.243 393.925C236.59 386.756 237.737 378.757 236.538 370.937C234.93 360.451 229.222 351.033 220.67 344.755C212.118 338.477 201.423 335.854 190.937 337.462Z" fill="#3F3D56"/>
<path id="Vector_29" d="M205.158 354.729C207.924 354.313 210.743 355.009 212.998 356.664C215.254 358.32 216.762 360.801 217.195 363.565L220.395 384.436C220.811 387.202 220.115 390.021 218.46 392.276C216.804 394.532 214.323 396.04 211.559 396.473L190.689 399.673C187.922 400.089 185.103 399.393 182.848 397.738C180.592 396.082 179.084 393.601 178.652 390.837L175.451 369.966C175.035 367.2 175.731 364.381 177.386 362.126C179.042 359.87 181.523 358.362 184.287 357.929L205.158 354.729V354.729ZM204.518 350.555L183.647 353.756C179.777 354.36 176.304 356.472 173.986 359.63C171.669 362.787 170.695 366.733 171.277 370.607L174.478 391.477C175.083 395.347 177.194 398.82 180.352 401.138C183.509 403.456 187.455 404.43 191.329 403.847L212.199 400.646C216.069 400.042 219.542 397.93 221.86 394.772C224.178 391.615 225.152 387.669 224.569 383.795L221.368 362.925C220.764 359.055 218.652 355.582 215.494 353.264C212.337 350.947 208.391 349.973 204.518 350.555V350.555Z" fill="#3F3D56"/>
<path id="Vector_30" d="M209.889 364.685C209.061 364.81 208.217 364.601 207.543 364.105C206.868 363.608 206.419 362.864 206.293 362.036C206.167 361.208 206.375 360.364 206.871 359.689C207.367 359.014 208.111 358.564 208.939 358.437C209.767 358.31 210.611 358.517 211.286 359.013C211.961 359.508 212.412 360.251 212.54 361.079C212.668 361.907 212.462 362.751 211.967 363.427C211.473 364.103 210.73 364.555 209.902 364.683L209.889 364.685Z" fill="#3F3D56"/>
<path id="Vector_31" d="M196.643 368.852C198.294 368.599 199.983 368.841 201.497 369.548C203.011 370.255 204.281 371.394 205.147 372.823C206.012 374.252 206.435 375.905 206.361 377.574C206.288 379.243 205.721 380.853 204.732 382.199C203.743 383.546 202.378 384.569 200.808 385.14C199.237 385.71 197.533 385.802 195.911 385.404C194.288 385.006 192.82 384.136 191.692 382.904C190.564 381.672 189.827 380.133 189.574 378.481C189.406 377.385 189.455 376.266 189.72 375.189C189.984 374.112 190.458 373.097 191.114 372.203C191.77 371.309 192.597 370.552 193.545 369.977C194.494 369.403 195.546 369.02 196.643 368.852ZM196.003 364.678C193.526 365.058 191.217 366.164 189.369 367.855C187.521 369.547 186.215 371.749 185.618 374.183C185.022 376.617 185.16 379.172 186.015 381.528C186.871 383.883 188.406 385.931 190.426 387.414C192.446 388.897 194.86 389.747 197.363 389.858C199.867 389.969 202.347 389.334 204.49 388.036C206.632 386.737 208.342 384.832 209.402 382.562C210.463 380.291 210.826 377.757 210.446 375.281V375.281C209.937 371.959 208.129 368.976 205.42 366.988C202.711 365 199.324 364.169 196.003 364.678V364.678Z" fill="#3F3D56"/>
</g>
<g id="pinterest">
<path id="Vector_32" d="M69.3666 369.515C61.1557 370.774 52.7558 369.57 45.2292 366.055C37.7026 362.54 31.3873 356.873 27.0818 349.769C22.7764 342.665 20.6741 334.444 21.041 326.145C21.4079 317.846 24.2274 309.843 29.1429 303.146C34.0585 296.45 40.8494 291.362 48.6568 288.525C56.4642 285.688 64.9374 285.23 73.0051 287.209C81.0728 289.188 88.3725 293.515 93.9812 299.642C99.5898 305.77 103.256 313.423 104.515 321.634C106.203 332.644 103.449 343.874 96.857 352.854C90.2655 361.833 80.3769 367.826 69.3666 369.515ZM56.9367 288.462C49.1169 289.661 41.8282 293.153 35.9925 298.494C30.1568 303.836 26.0361 310.788 24.1515 318.471C22.2669 326.155 22.7031 334.225 25.4048 341.66C28.1066 349.096 32.9526 355.563 39.33 360.245C45.7074 364.926 53.3298 367.612 61.2334 367.961C69.1369 368.31 76.9666 366.308 83.7323 362.208C90.4979 358.107 95.8958 352.093 99.2431 344.925C102.591 337.756 103.737 329.757 102.538 321.937C100.93 311.451 95.2219 302.033 86.67 295.755C78.1182 289.477 67.4228 286.854 56.9367 288.462V288.462Z" fill="#3F3D56"/>
<path id="Vector_33" d="M60.3305 300.89C54.0795 301.849 48.3489 304.93 44.1014 309.616C39.8538 314.301 37.3479 320.306 37.0046 326.62C36.6613 332.935 38.5016 339.176 42.2163 344.294C45.931 349.412 51.2938 353.096 57.404 354.727C56.9685 352.651 56.8058 350.527 56.92 348.408C57.1033 346.116 58.1444 333.032 58.1444 333.032C57.3419 331.768 56.8186 330.347 56.6097 328.864C55.9909 324.829 57.8621 321.457 60.7789 321.01C63.2582 320.63 64.7344 322.307 65.0754 324.531C65.4575 327.022 64.4357 330.985 64.1507 334.562C64.0866 335.226 64.1794 335.896 64.4219 336.518C64.6643 337.14 65.0494 337.696 65.5463 338.141C66.0432 338.587 66.6378 338.909 67.2822 339.083C67.9266 339.256 68.6028 339.276 69.2562 339.14C74.4092 338.35 76.8693 331.193 75.6653 323.342C74.7501 317.375 70.0434 313.531 62.7392 314.652C54.4872 315.917 50.2791 322.869 51.334 329.748C51.5504 331.7 52.4828 333.502 53.9509 334.807C54.1958 334.953 54.3879 335.173 54.4997 335.436C54.6114 335.698 54.637 335.989 54.5727 336.267C54.5154 336.786 54.4083 338.033 54.3492 338.54C54.3484 338.691 54.3118 338.839 54.2423 338.972C54.1728 339.106 54.0723 339.221 53.9494 339.308C53.8265 339.395 53.6847 339.451 53.5356 339.472C53.3865 339.494 53.2345 339.479 53.0923 339.429C49.0498 338.457 46.638 334.573 45.9186 329.882C44.7333 322.152 49.8375 311.878 62.7687 309.895C73.1597 308.302 81.1556 314.775 82.3932 322.845C84.0314 333.528 79.3111 342.412 70.5608 343.754C67.6197 344.205 64.6168 343.036 63.393 341.382C63.393 341.382 62.7748 347.896 62.6208 349.163C62.3089 351.325 61.6893 353.43 60.7809 355.416C64.6948 355.948 68.6774 355.632 72.4583 354.489C76.2393 353.346 79.7303 351.404 82.6946 348.794C85.6588 346.183 88.0271 342.966 89.6386 339.36C91.2502 335.753 92.0673 331.843 92.0346 327.893C92.002 323.943 91.1204 320.047 89.4494 316.468C87.7785 312.889 85.3575 309.711 82.3504 307.15C79.3434 304.589 75.8208 302.704 72.0215 301.624C68.2221 300.544 64.2349 300.294 60.3304 300.89L60.3305 300.89Z" fill="#3F3D56"/>
</g>
</g>
</g>
<defs>
<clipPath id="clip0_3_2">
<rect width="926.632" height="785.994" fill="white"/>
</clipPath>
</defs>
</svg>
